<svg xmlns="http://www.w3.org/2000/svg" viewBox="0 0 1024 1024">
  <path d="M1448 786H1280V954H1448ZM1448 530H1280V698H1448ZM1192 786H1024V954H1192ZM1192 530H1024V698H1192ZM1192 186H512V358H1192ZM424 786H256V954H424ZM424 530H256V698H424ZM512 698H680V530H512ZM512 954H680V786H512ZM768 698H936V530H768ZM768 954H936V786H768ZM1536 1210H168Q100 1210 50.0 1160.0Q0 1110 0 1042V186Q0 118 50.0 68.0Q100 18 168 18H1536Q1604 18 1654.0 68.0Q1704 118 1704 186V1042Q1704 1110 1654.0 1160.0Q1604 1210 1536 1210Z" transform="translate(100.000000 808.910798) scale(0.483568 -0.483568)"/>
</svg>

